<svg id="图层_1" data-name="图层 1" xmlns="http://www.w3.org/2000/svg" viewBox="0 0 194 194"><defs><style>.cls-1{fill:#ffb2ba;}.cls-2{fill:#fff;}</style></defs><title>small_circle1</title><circle class="cls-1" cx="97" cy="97" r="97"/><circle class="cls-2" cx="97.5" cy="81.5" r="3.5"/><circle class="cls-2" cx="78.5" cy="78.5" r="3.5"/><circle class="cls-2" cx="58.5" cy="70.5" r="3.5"/><circle class="cls-2" cx="43.5" cy="58.5" r="3.5"/><circle class="cls-2" cx="30.5" cy="73.5" r="3.5"/><circle class="cls-2" cx="23.5" cy="93.5" r="3.5"/><circle class="cls-2" cx="23.5" cy="115.5" r="3.5"/><circle class="cls-2" cx="33.5" cy="133.5" r="3.5"/><circle class="cls-2" cx="46.5" cy="150.5" r="3.5"/><circle class="cls-2" cx="61.5" cy="161.5" r="3.5"/><circle class="cls-2" cx="97.5" cy="175.5" r="3.5"/><circle class="cls-2" cx="116.5" cy="78.5" r="3.5"/><circle class="cls-2" cx="136.5" cy="70.5" r="3.5"/><circle class="cls-2" cx="151.5" cy="58.5" r="3.5"/><circle class="cls-2" cx="41.5" cy="108.5" r="3.5"/><circle class="cls-2" cx="58.5" cy="115.5" r="3.5"/><circle class="cls-2" cx="76.5" cy="121.5" r="3.5"/><circle class="cls-2" cx="97.5" cy="122.5" r="3.5"/><circle class="cls-2" cx="118.5" cy="121.5" r="3.5"/><circle class="cls-2" cx="153.5" cy="108.5" r="3.5"/><circle class="cls-2" cx="136.5" cy="115.5" r="3.5"/><circle class="cls-2" cx="78.5" cy="170.5" r="3.5"/><circle class="cls-2" cx="165.5" cy="73.5" r="3.5"/><circle class="cls-2" cx="172.5" cy="93.5" r="3.5"/><circle class="cls-2" cx="172.5" cy="115.5" r="3.5"/><circle class="cls-2" cx="162.5" cy="133.5" r="3.5"/><circle class="cls-2" cx="149.5" cy="150.5" r="3.5"/><circle class="cls-2" cx="134.5" cy="161.5" r="3.5"/><circle class="cls-2" cx="117.5" cy="170.5" r="3.5"/><path class="cls-2" d="M46,33s4,38,48,37C94,70,97,33,46,33Z" transform="translate(-3 -3)"/><path class="cls-2" d="M156,33s-4,38-48,37C108,70,105,33,156,33Z" transform="translate(-3 -3)"/><path class="cls-2" d="M101,62S65,22,101,9C101,9,136,18.76,101,62Z" transform="translate(-3 -3)"/></svg>